<svg id="visual" viewBox="0 0 1200 100" width="1200" height="100" xmlns="http://www.w3.org/2000/svg" xmlns:xlink="http://www.w3.org/1999/xlink" version="1.1"><rect x="0" y="0" width="1200" height="100" fill="#fffffe"></rect><path d="M0 51L28.5 50.7C57 50.3 114 49.7 171.2 53.8C228.3 58 285.7 67 342.8 68.7C400 70.3 457 64.7 514.2 56.8C571.3 49 628.7 39 685.8 39.5C743 40 800 51 857.2 56.7C914.3 62.3 971.7 62.7 1028.8 60.8C1086 59 1143 55 1171.5 53L1200 51L1200 101L1171.5 101C1143 101 1086 101 1028.8 101C971.7 101 914.3 101 857.2 101C800 101 743 101 685.8 101C628.7 101 571.3 101 514.2 101C457 101 400 101 342.8 101C285.7 101 228.3 101 171.2 101C114 101 57 101 28.5 101L0 101Z" fill="#fdd492" stroke-linecap="round" stroke-linejoin="miter"></path></svg>